HIERARCHY
ROOT Hips
{
  OFFSET 7.333 -26.027 -164.856
  CHANNELS 6 Xposition Yposition Zposition Zrotation Xrotation Yrotation
  JOINT LeftUpLeg
  {
    OFFSET 10.092 0.000 0.000
    CHANNELS 3 Zrotation Xrotation Yrotation
    JOINT LeftLeg
    {
      OFFSET 0.000 -38.160 -0.000
    CHANNELS 3 Zrotation Xrotation Yrotation
      JOINT LeftFoot
      {
        OFFSET -0.000 -24.040 0.000
    CHANNELS 3 Zrotation Xrotation Yrotation
        End Site
        {
          OFFSET -0.000 0.000 12.945
        }
      }
    }
  }
  JOINT RightUpLeg
  {
    OFFSET -10.092 -0.000 0.000
    CHANNELS 3 Zrotation Xrotation Yrotation
    JOINT RightLeg
    {
      OFFSET 0.000 -33.046 0.000
    CHANNELS 3 Zrotation Xrotation Yrotation
      JOINT RightFoot
      {
        OFFSET 0.000 -22.031 -0.000
    CHANNELS 3 Zrotation Xrotation Yrotation
        End Site
        {
          OFFSET 0.000 -0.000 11.863
        }
      }
    }
  }
  JOINT Spine
  {
    OFFSET -0.000 16.511 0.000
    CHANNELS 3 Zrotation Xrotation Yrotation
    JOINT LeftShoulder
    {
      OFFSET 0 16.511 0
    CHANNELS 3 Zrotation Xrotation Yrotation
      JOINT LeftArm
      {
        OFFSET 16.337 0.000 0.000
    CHANNELS 3 Zrotation Xrotation Yrotation
        JOINT LeftForeArm
        {
          OFFSET 0.000 -24.030 0.000
    CHANNELS 3 Zrotation Xrotation Yrotation
          JOINT LeftHand
          {
            OFFSET 0.000 -17.629 -0.000
    CHANNELS 3 Zrotation Xrotation Yrotation
            End Site
            {
              OFFSET 0.000 -11.753 -0.000
            }
          }
        }
      }
    }
    JOINT RightShoulder
    {
      OFFSET 0 16.511 0
    CHANNELS 3 Zrotation Xrotation Yrotation
      JOINT RightArm
      {
        OFFSET -16.337 0.000 0.000
    CHANNELS 3 Zrotation Xrotation Yrotation
        JOINT RightForeArm
        {
          OFFSET -0.000 -19.534 0.000
    CHANNELS 3 Zrotation Xrotation Yrotation
          JOINT RightHand
          {
            OFFSET 0.000 -19.514 -0.000
    CHANNELS 3 Zrotation Xrotation Yrotation
            End Site
            {
              OFFSET 0.000 -13.010 -0.000
            }
          }
        }
      }
    }
    JOINT Neck
    {
      OFFSET -0.000 16.511 0.000
    CHANNELS 3 Zrotation Xrotation Yrotation
      JOINT Head
      {
        OFFSET -0.000 12.493 -0.000
    CHANNELS 3 Zrotation Xrotation Yrotation
        End Site
        {
          OFFSET -0.000 8.328 -0.000
        }
      }
    }
  }
}
MOTION
Frames: 12
Frame Time: 0.0333333
0 0 0 -1.264100e+00 -4.870300e-02 -1.948973e+00 5.980670e-01 2.736260e+00 -2.855100e-02 -3.846280e+00 9.128870e+00 5.159980e-01 0 0 0 2.317520e+00 6.165250e+00 -2.490260e-01 1.813970e+00 -1.140430e+01 8.156160e-01 0 0 0 1.000000e-06 0 3.000000e-05 0 0 0 1.013510e+01 -5.451490e+01 -7.641220e+01 1.061130e+02 -2.522670e+01 1.135570e+02 0 1.000000e-06 0 0 0 0 -3.696830e+00 -5.520340e+01 8.669340e+01 -1.091770e+02 -1.575140e+01 -1.501950e+02 0 -1.000000e-06 0 -4.410260e-01 1.292630e+00 9.949000e-03 0 0 0 
0 0 0 -1.122710e+00 -2.979650e-01 -2.318110e-01 7.991000e-02 3.307700e+00 -4.610000e-03 -3.007190e+00 9.692200e+00 4.932630e-01 0 0 0 2.100000e+00 6.624560e+00 -2.423690e-01 1.632630e+00 -1.127140e+01 7.278100e-01 0 0 0 -1.000000e-06 0 -5.500000e-05 0 0 0 -2.529850e+00 -5.425020e+01 -9.289920e+01 1.046280e+02 -2.756960e+01 1.096000e+02 -1.000000e-06 1.000000e-06 1.000000e-06 0 0 0 8.292230e-01 -5.269470e+01 9.164040e+01 -1.087580e+02 -2.199440e+01 -1.397790e+02 0 -1.000000e-06 0 -4.104050e-01 1.275860e-01 9.140000e-04 0 0 0 
0 0 0 -1.168142e+00 -1.922414e-01 5.156554e-01 2.919284e-01 4.184975e+00 -2.130981e-02 -2.824678e+00 7.255673e+00 3.200587e-01 0 -6.768935e-09 0 2.371862e+00 7.750160e+00 -3.201276e-01 1.325278e+00 -1.201810e+01 7.598067e-01 0 0 0 5.192324e-07 0 -9.300000e-05 0 0 0 -3.421648e+00 -4.875534e+01 -9.434177e+01 1.074991e+02 -3.231513e+01 1.125312e+02 4.763570e-08 6.564318e-07 -2.260898e-08 0 0 0 4.208403e+00 -4.805150e+01 9.568401e+01 -1.089359e+02 -2.541464e+01 -1.352287e+02 3.643728e-07 8.874165e-08 2.985957e-08 -1.248669e-01 -9.241340e-01 -2.009000e-03 0 0 1.876871e-08 
0 0 0 -1.059309e+00 -2.968174e-01 1.550762e+00 2.768648e-01 4.453779e+00 -2.152581e-02 -2.872329e+00 7.084487e+00 3.202023e-01 0 3.389522e-09 0 2.452862e+00 8.673386e+00 -3.699882e-01 1.119265e+00 -1.333960e+01 8.176627e-01 0 0 0 NaN 0 3.000000e-06 0 0 0 -6.080793e+00 -4.873541e+01 -9.805221e+01 1.063958e+02 -3.129454e+01 1.113504e+02 1.052773e-07 NaN 3.510991e-08 0 0 0 8.082034e+00 -5.130944e+01 9.989501e+01 -1.042206e+02 -2.458261e+01 -1.294035e+02 NaN 5.805201e-07 -4.159229e-07 -4.931944e-01 -1.090154e+00 -9.381572e-03 0 0 1.351884e-08 
0 0 0 -1.269740e+00 -4.575746e-01 9.987751e-01 3.830627e-01 4.111286e+00 -2.742547e-02 -3.052303e+00 8.019110e+00 3.722738e-01 0 6.394066e-09 0 2.464912e+00 9.599455e+00 -4.121553e-01 1.319603e+00 -1.448418e+01 9.399053e-01 0 0 0 NaN 0 9.800000e-05 0 0 0 -8.696871e+00 -5.236196e+01 -1.011873e+02 1.029802e+02 -2.810510e+01 1.064722e+02 2.251072e-07 NaN 3.087327e-08 0 0 0 6.178290e+00 -5.177482e+01 9.774867e+01 -1.057415e+02 -2.185082e+01 -1.349271e+02 NaN NaN NaN -4.010452e-01 -6.667236e-01 -4.666531e-03 0 0 2.471988e-08 
0 0 0 -6.567641e-01 -4.848263e-01 -7.107154e-01 -8.019780e-02 4.550028e+00 6.349654e-03 -4.458053e+00 7.430990e+00 5.881625e-01 0 -9.173342e-09 0 1.686405e+00 1.010430e+01 -2.948712e-01 1.425904e+00 -1.602360e+01 8.522364e-01 0 0 0 -6.615346e-08 0 -4.100000e-05 0 0 0 -2.884209e+00 -5.392753e+01 -9.348190e+01 1.022992e+02 -2.270382e+01 1.079496e+02 NaN 2.707394e-08 4.307305e-08 0 0 0 4.003793e+00 -5.535011e+01 9.522990e+01 -1.056960e+02 -1.920690e+01 -1.391831e+02 1.085617e-07 NaN NaN -2.220078e-01 1.188570e-01 4.586058e-04 0 0 NaN 
0 0 0 -8.466140e-01 -1.664237e+00 3.664510e-01 1.048000e-02 4.318544e+00 -1.545007e-03 -2.920676e+00 1.224260e+01 6.167570e-01 0 -2.210297e-09 0 1.969106e+00 1.078222e+01 -3.682009e-01 1.522771e+00 -1.478007e+01 8.824962e-01 0 0 0 1.947310e-07 0 -3.200000e-05 0 0 0 7.859645e+00 -5.283634e+01 -7.875073e+01 1.047597e+02 -2.225030e+01 1.131066e+02 NaN 1.587638e-07 7.180176e-08 0 0 0 -9.050400e+00 -5.288467e+01 8.022972e+01 -1.080201e+02 -1.357786e+01 -1.513766e+02 NaN -1.774828e-07 -3.455221e-08 -1.829915e-01 3.185390e-01 1.013000e-03 0 0 1.156069e-08 
0 0 0 -8.510334e-01 -1.213896e+00 8.750088e-02 3.535399e-01 4.866366e+00 -3.000912e-02 -3.508666e+00 9.443980e+00 5.184340e-01 0 -1.228204e-08 0 2.080410e+00 9.595928e+00 -3.487579e-01 2.193121e+00 -1.301519e+01 9.572758e-01 0 0 0 NaN 0 5.101317e-05 0 0 0 2.208276e+01 -4.902657e+01 -5.875917e+01 1.060436e+02 -1.928059e+01 1.181643e+02 3.655803e-09 NaN 2.665920e-07 0 0 0 -2.338960e+01 -4.905455e+01 6.319294e+01 -1.101670e+02 -7.598882e+00 -1.670885e+02 1.401575e-07 NaN -2.336119e-07 -4.226786e-01 7.880043e-01 5.792546e-03 0 0 1.337933e-08 
0 0 0 -8.272296e-01 -1.232107e+00 -6.720444e-01 2.829167e-01 4.958551e+00 -2.446476e-02 -3.479244e+00 9.436370e+00 5.250824e-01 0 -1.668925e-08 0 2.098414e+00 9.249354e+00 -3.373086e-01 2.132267e+00 -1.208315e+01 8.806678e-01 0 0 0 1.241529e-07 0 -3.399449e-05 0 0 0 3.196748e+01 -4.107650e+01 -4.171012e+01 1.060121e+02 -1.471567e+01 1.234346e+02 -1.534994e-09 6.409058e-08 NaN 0 0 0 -3.435550e+01 -4.111559e+01 4.855793e+01 -1.103026e+02 5.465130e-02 1.595174e+02 3.700832e-07 -6.630908e-08 NaN -8.991679e-02 4.551197e-01 7.156645e-04 0 0 1.544209e-08 
0 0 0 -6.139355e-01 3.229890e-01 -9.431323e-01 2.594281e-01 3.362218e+00 -1.522273e-02 -3.933598e+00 9.941180e+00 6.355222e-01 0 -1.062002e-08 0 2.008612e+00 6.953318e+00 -2.444378e-01 1.724780e+00 -1.069278e+01 6.903100e-01 0 0 0 3.738647e-07 0 -6.081555e-06 0 0 0 3.795631e+01 -3.256427e+01 -2.837644e+01 1.026593e+02 -6.829015e+00 1.292487e+02 -3.034502e-09 -6.683422e-08 NaN 0 0 0 -3.840841e+01 -2.996915e+01 3.861136e+01 -1.099343e+02 7.094400e+00 1.525207e+02 NaN -3.508211e-08 NaN -2.824336e-01 1.465470e+00 7.223563e-03 0 0 2.649513e-08 
0 0 0 -4.066959e-01 4.098220e-01 -8.980934e-01 8.990329e-02 3.192880e+00 -4.412177e-03 -4.126221e+00 8.748250e+00 6.163712e-01 0 -3.084032e-09 0 1.862007e+00 6.929310e+00 -2.248162e-01 1.390380e+00 -1.134850e+01 6.376820e-01 0 0 0 NaN 0 3.589989e-05 0 0 0 3.985737e+01 -2.124215e+01 -1.554851e+01 9.604046e+01 -6.768360e+00 1.075540e+02 -6.213129e-08 -8.108807e-08 6.737590e-08 0 0 0 -4.207793e+01 -2.023724e+01 2.860116e+01 -1.045964e+02 1.083276e+01 1.203278e+02 NaN -6.720263e-08 -1.401425e-08 -1.151560e-01 1.474050e+00 2.965506e-03 0 0 1.333333e-08 
0 0 0 -2.422520e-01 6.455379e-02 -1.535395e+00 -6.951509e-01 3.372029e+00 4.089493e-02 -3.577745e+00 1.023288e+01 7.597506e-01 0 -8.943407e-09 0 1.130347e+00 8.510558e+00 -1.680956e-01 1.971162e+00 -1.367660e+01 7.309716e-01 0 0 0 NaN 0 4.488404e-05 0 0 0 3.874225e+01 -9.954782e+00 -2.947809e+00 9.190260e+01 -1.146200e+01 9.310400e+01 -4.001578e-08 -1.062735e-07 1.076243e-07 0 0 0 -4.178324e+01 -1.447276e+01 2.405523e+01 -9.819480e+01 1.429044e+01 1.192911e+02 4.718143e-08 -9.234294e-08 -3.845014e-08 -1.219197e-01 1.362171e+00 2.891049e-03 0 0 NaN 
